<mxfile host="app.diagrams.net" modified="2023-10-07T09:54:36.943Z" agent="Mozilla/5.0 (X11; Linux x86_64) AppleWebKit/537.36 (KHTML, like Gecko) Chrome/117.0.0.0 Safari/537.36" version="21.6.8" etag="Qknselg5Nl27i5dqtr-v" type="github">
  <diagram name="Page-1" id="AscPys0V_Mb6e2KdYP80">
    <mxGraphModel>
      <root>
        <mxCell id="0" />
        <mxCell id="1" parent="0" />
      </root>
    </mxGraphModel>
  </diagram>
</mxfile>
